<svg xmlns="http://www.w3.org/2000/svg" width="40" height="40" viewBox="0 0 40 40">
  <g id="ic_follow" transform="translate(-1819 124)">
    <rect id="Rectangle_4" data-name="Rectangle 4" width="40" height="40" transform="translate(1819 -124)" fill="none"/>
    <path id="checked_1_" data-name="checked (1)" d="M.3,14a.967.967,0,0,1,0-1.4l1.4-1.4a.967.967,0,0,1,1.4,0l.1.1,5.5,5.9a.483.483,0,0,0,.7,0L22.8,3.3h.1a.967.967,0,0,1,1.4,0l1.4,1.4a.967.967,0,0,1,0,1.4h0L9.7,22.7a.967.967,0,0,1-1.4,0L.5,14.3.3,14Z" transform="translate(1826 -117)" fill="#1d252c"/>
  </g>
</svg>
