<svg xmlns="http://www.w3.org/2000/svg" viewBox="0 0 236.46 230.55"><title>adobe-indesign-logo</title><path d="M179.64,140.72H332.36a41.84,41.84,0,0,1,41.87,41.87V329.4a41.84,41.84,0,0,1-41.87,41.87H179.64a41.84,41.84,0,0,1-41.87-41.87V182.6A41.84,41.84,0,0,1,179.64,140.72Z" transform="translate(-137.77 -140.72)" style="fill:#49021f"/><path d="M223.68,201V302.11c0,1.08-.49,1.58-1.38,1.58H203c-.89,0-1.28-.49-1.28-1.58V201c0-.89.49-1.28,1.38-1.28H222.3a1.11,1.11,0,0,1,1.28,1A.36.36,0,0,1,223.68,201Z" transform="translate(-137.77 -140.72)" style="fill:#f36"/><path d="M280.43,305.26a49,49,0,0,1-21.18-4.43,34.35,34.35,0,0,1-14.88-13.4c-3.65-6-5.42-13.5-5.42-22.46a40.47,40.47,0,0,1,5.42-20.79A40.92,40.92,0,0,1,260,228.91c6.9-3.84,15.17-5.71,24.93-5.71a17.59,17.59,0,0,1,2.07.1c.89.1,1.87.1,3.05.2V192.35c0-.69.3-1.08,1-1.08h20a.88.88,0,0,1,1,.69v94c0,1.77.1,3.74.2,5.91s.3,4,.39,5.71a1.6,1.6,0,0,1-1,1.58,75.25,75.25,0,0,1-16.06,4.73A86,86,0,0,1,280.43,305.26Zm9.66-19.71V242.21a25.2,25.2,0,0,0-2.66-.49c-1.08-.1-2.17-.2-3.25-.2A24.29,24.29,0,0,0,273,244.08a22.09,22.09,0,0,0-8.37,7.29c-2.17,3.15-3.25,7.39-3.25,12.51A27.46,27.46,0,0,0,263.09,274a19.26,19.26,0,0,0,4.43,7,17,17,0,0,0,6.7,3.94,25.79,25.79,0,0,0,8.18,1.28c1.48,0,2.86-.1,4.14-.2A8.39,8.39,0,0,0,290.09,285.56Z" transform="translate(-137.77 -140.72)" style="fill:#f36"/></svg>