<svg id="Layer_1" data-name="Layer 1" xmlns="http://www.w3.org/2000/svg" viewBox="0 0 240 234"><title>Adobe After Effects CC logo - Brandlogos.net</title><g id="Layer_2" data-name="Layer 2"><g id="Surfaces"><g id="Video_Audio_Surface" data-name="Video Audio Surface"><g id="Outline_no_shadow" data-name="Outline no shadow"><rect width="240" height="234" rx="42.5" ry="42.5" style="fill:#00005b"/></g></g></g><g id="Outlined_Mnemonics_Logos" data-name="Outlined Mnemonics Logos"><g id="Ae"><path d="M360.42,407H323.22l-7.57,23.55a1.89,1.89,0,0,1-1.93,1.45H294.89q-1.61,0-1.13-1.77L326,337.88c.32-1,.64-1.91,1-3.15a34.4,34.4,0,0,0,.64-6.52,1,1,0,0,1,1.13-1.13h25.6q1.12,0,1.29.81l36.55,102.5q.48,1.61-1,1.61H370.24a1.49,1.49,0,0,1-1.61-1.13ZM329,387.14h25.44q-1-3.22-2.25-7.25t-2.74-8.61l-2.9-9.18q-1.45-4.59-2.66-8.86t-2.17-7.81h-.16a129.84,129.84,0,0,1-3.38,12.88q-2.26,7.25-4.59,14.81T329,387.14Z" transform="translate(-264 -267)" style="fill:#99f"/><path d="M451.38,397.83H419.66a22.62,22.62,0,0,0,3.06,8.87,16.56,16.56,0,0,0,7.33,6,30.59,30.59,0,0,0,12.8,2.51,58,58,0,0,0,10.38-1.14,38.27,38.27,0,0,0,8.93-2.33c.54-.43.81-.16.81.81v15.29a2.38,2.38,0,0,1-.24,1.21,2.31,2.31,0,0,1-.72.72,40.94,40.94,0,0,1-10,3A70.76,70.76,0,0,1,437.86,434q-11.43,0-19.16-3.54a34.15,34.15,0,0,1-12.56-9.5,37.2,37.2,0,0,1-6.92-13.12,51.67,51.67,0,0,1-2.09-14.57,50.75,50.75,0,0,1,2.5-15.86,41.42,41.42,0,0,1,7.49-13.69,36,36,0,0,1,12.08-9.5c4.72-2.31,10.3-3.13,16.74-3.13a36.33,36.33,0,0,1,15.54,3.06,27.38,27.38,0,0,1,10.55,8,36.62,36.62,0,0,1,6,11.35,40.45,40.45,0,0,1,1.93,12.24q0,3.54-.24,6.44t-.4,4.19a1.46,1.46,0,0,1-1.45,1.29q-1,0-3.3.24t-5.8.32C456.4,398.23,454,397.83,451.38,397.83Zm-31.72-14.67h21.09q3.86,0,5.72-.08a5.62,5.62,0,0,0,2.34-.77v-1a12.88,12.88,0,0,0-.64-3.7,13.15,13.15,0,0,0-13-9.18A14,14,0,0,0,421.84,376,23.29,23.29,0,0,0,419.66,383.17Z" transform="translate(-264 -267)" style="fill:#99f"/></g></g></g></svg>